<?xml version="1.0" ?><svg enable-background="new 0 0 196 214.1418" id="youtube" version="1.1" viewBox="0 0 196 214.1418" xml:space="preserve" xmlns="http://www.w3.org/2000/svg" xmlns:xlink="http://www.w3.org/1999/xlink"><g><path d="M157.0234,31.6272H38.9766C17.4844,31.6272,0,49.1663,0,70.7249v65.8047   c0,21.5586,17.4844,39.0977,38.9766,39.0977h118.0469c21.4922,0,38.9766-17.5391,38.9766-39.0977V70.7249   C196,49.1663,178.5156,31.6272,157.0234,31.6272z" fill="#1C71DA"/><path d="M188,136.5295c0,17.1465-13.8965,31.0977-30.9766,31.0977H38.9766C21.8965,167.6272,8,153.676,8,136.5295   V70.7249c0-17.1465,13.8965-31.0977,30.9766-31.0977h118.0469C174.1035,39.6272,188,53.5784,188,70.7249V136.5295z" fill="#5CB0FF"/><path d="M133.4414,102.1799L78.0215,69.719c-1.2305-0.7207-2.7656-0.7324-4.0098-0.0195S72,71.7366,72,73.1702   v64.9141c0,1.4336,0.7676,2.7578,2.0098,3.4707c0.6172,0.3535,1.3047,0.5293,1.9902,0.5293c0.6992,0,1.3965-0.1836,2.0215-0.5488   l55.4199-32.4531c1.2246-0.7168,1.9785-2.0312,1.9785-3.4512S134.668,102.8967,133.4414,102.1799z" fill="#1C71DA"/><polygon fill="#D0E8FF" points="80,131.1057 80,80.1487 123.5039,105.6311  "/></g><path d="M58.1759,22.1418c-1.0239,0-2.0474-0.3906-2.8286-1.1714c-1.562-1.5625-1.562-4.0947,0-5.6572  L69.4894,1.1711c1.5625-1.5615,4.0947-1.5615,5.6572,0c1.562,1.5625,1.562,4.0947,0,5.6572L61.0045,20.9705  C60.2233,21.7512,59.1999,22.1418,58.1759,22.1418z" fill="#FF5D5D"/><path d="M72.318,22.1423c-1.0239,0-2.0474-0.3906-2.8286-1.1714L55.3473,6.8284c-1.562-1.5625-1.562-4.0952,0-5.6572  c1.5635-1.5615,4.0957-1.561,5.6572,0l14.1421,14.1426c1.562,1.5625,1.562,4.0952,0,5.6572  C74.3654,21.7517,73.3415,22.1423,72.318,22.1423z" fill="#FF5D5D"/><path d="M36.1759,214.1418c-7.7197,0-14-6.2803-14-14s6.2803-14,14-14s14,6.2803,14,14  S43.8957,214.1418,36.1759,214.1418z M36.1759,194.1418c-3.3086,0-6,2.6914-6,6s2.6914,6,6,6s6-2.6914,6-6  S39.4845,194.1418,36.1759,194.1418z" fill="#00D40B"/><path d="M145.4894,164.7693c-1.0239,0-2.0474-0.3906-2.8286-1.1714l-11.3135-11.3135  c-1.562-1.5625-1.562-4.0947,0-5.6567l11.3135-11.314c0.7505-0.7505,1.7676-1.1719,2.8286-1.1719s2.0781,0.4214,2.8286,1.1714  l11.314,11.314c0.75,0.7505,1.1714,1.7676,1.1714,2.8286s-0.4214,2.0781-1.1719,2.8286l-11.314,11.3135  C147.5368,164.3787,146.5128,164.7693,145.4894,164.7693z M139.8327,149.4558l5.6567,5.6567l5.6572-5.6567l-5.6572-5.6572  L139.8327,149.4558z" fill="#FFC504"/></svg>